<svg width="128" height="129" viewBox="0 0 128 129" fill="none" xmlns="http://www.w3.org/2000/svg">
<path d="M32 80.625V104.812H112V48.375H96V40.3125H114.872C116.656 40.3125 117.304 40.4979 117.952 40.8527C118.599 41.1949 119.129 41.726 119.472 42.3765C119.816 43.0296 120 43.6826 120 45.4806V107.707C120 109.505 119.816 110.158 119.464 110.811C119.124 111.463 118.597 111.997 117.952 112.343C117.304 112.69 116.656 112.875 114.872 112.875H29.128C27.344 112.875 26.696 112.69 26.048 112.335C25.4007 111.993 24.871 111.462 24.528 110.811C24.192 110.158 24 109.505 24 107.715V80.625H32Z" fill="#D27C2C"/>
<path d="M96 24.1875H16V80.625H96V24.1875ZM104 21.2931V83.5194C104 85.3174 103.816 85.9704 103.464 86.6235C103.124 87.2758 102.597 87.8097 101.952 88.1554C101.304 88.5021 100.656 88.6875 98.872 88.6875H13.128C11.344 88.6875 10.696 88.5021 10.048 88.1473C9.40073 87.8051 8.87098 87.274 8.528 86.6235C8.192 85.9704 8 85.3174 8 83.5275V21.2931C8 19.4951 8.184 18.8421 8.536 18.189C8.87557 17.5367 9.40253 17.0028 10.048 16.6571C10.696 16.3185 11.344 16.125 13.12 16.125H98.864C100.648 16.125 101.296 16.3104 101.944 16.6652C102.591 17.0074 103.121 17.5385 103.464 18.189C103.808 18.8421 103.992 19.4951 103.992 21.2931H104Z" fill="#D27C2C"/>
<path d="M56 72.5625C50.6957 72.5625 45.6086 70.4389 41.8579 66.6589C38.1071 62.8788 36 57.752 36 52.4062C36 47.0605 38.1071 41.9337 41.8579 38.1536C45.6086 34.3736 50.6957 32.25 56 32.25C61.3043 32.25 66.3914 34.3736 70.1421 38.1536C73.8929 41.9337 76 47.0605 76 52.4062C76 57.752 73.8929 62.8788 70.1421 66.6589C66.3914 70.4389 61.3043 72.5625 56 72.5625ZM56 64.5C59.1826 64.5 62.2348 63.2258 64.4853 60.9578C66.7357 58.6898 68 55.6137 68 52.4062C68 49.1988 66.7357 46.1227 64.4853 43.8547C62.2348 41.5867 59.1826 40.3125 56 40.3125C52.8174 40.3125 49.7652 41.5867 47.5147 43.8547C45.2643 46.1227 44 49.1988 44 52.4062C44 55.6137 45.2643 58.6898 47.5147 60.9578C49.7652 63.2258 52.8174 64.5 56 64.5Z" fill="#D27C2C"/>
</svg>
